 http://i.imgur.com/71B3ndh.jpg

 
http://www.imdb.com/title/tt0848537/

A teenager finds herself transported to a deep forest setting where a battle between the forces of good and the forces of evil is taking place. She bands together with a rag-tag group characters in order to save their world ΓÇö and ours

General
Complete name: Epic 2013 TS x264 AAC-OFFLiNE.mp4
Format: MPEG-4
Format profile: Base Media
Codec ID: isom
File size: 1.43 GiB
Duration: 1h 34mn
Overall bit rate mode: Variable
Overall bit rate: 2 180 Kbps
Encoded date: UTC 2013-05-26 22:56:05
Tagged date: UTC 2013-05-26 22:56:05

Video
ID: 1
Format: AVC
Format/Info: Advanced Video Codec
Format profile: High@L4.1
Format settings, CABAC: Yes
Format settings, ReFrames: 3 frames
Codec ID: avc1
Codec ID/Info: Advanced Video Coding
Duration: 1h 34mn
Bit rate mode: Variable
Bit rate: 2 048 Kbps
Maximum bit rate: 40.0 Mbps
Width: 720 pixels
Height: 288 pixels
Display aspect ratio: 2.500
Frame rate mode: Constant
Frame rate: 29.970 fps
Color space: YUV
Chroma subsampling: 4:2:0
Bit depth: 8 bits
Scan type: Progressive
Bits/(Pixel*Frame): 0.330
Stream size: 1.35 GiB (94%)
Writing library: x264 core 132 r2310 76a5c3a

Audio
ID: 2
Format: AAC
Format/Info: Advanced Audio Codec
Format profile: LC
Codec ID: 40
Duration: 1h 34mn
Bit rate mode: Variable
Bit rate: 128 Kbps
Maximum bit rate: 148 Kbps
Channel(s): 2 channels
Channel positions: Front: L R
Sampling rate: 44.1 KHz
Compression mode: Lossy
Stream size: 86.3 MiB (6%)
Language: English
 
http://i.imgur.com/CCqX5t3.png 
http://i.imgur.com/myDxBs9.png 
http://i.imgur.com/X608hd7.png 
http://i.imgur.com/9RFofKH.png 
http://i.imgur.com/zXYtDjZ.png 
http://i.imgur.com/EiJa37g.png
 
http://s.gullipics.com/image/h/a/e/8uxiyx-kqw041-sdo2/Epic2013TSx264AACOFFLiNEs.jpeg